<svg id="Layer_1" data-name="Layer 1" xmlns="http://www.w3.org/2000/svg" viewBox="0 0 72.1 89.72"><defs><style>.cls-1{fill:#f9f9f9;}.cls-2{fill:#112033;}.cls-3{fill:#e4e5e6;}.cls-4,.cls-5{fill:#d1d3d4;}.cls-5{stroke:#d1d3d4;}.cls-5,.cls-6,.cls-9{stroke-miterlimit:10;}.cls-5,.cls-9{stroke-width:0.4px;}.cls-6,.cls-7{fill:#f8f6c8;}.cls-6{stroke:#f8f6c8;stroke-width:0.3px;}.cls-8{fill:#e6ebdb;}.cls-10,.cls-9{fill:#d9d6d3;}.cls-9{stroke:#d9d6d3;}</style></defs><title>logo-with-text</title><path class="cls-1" d="M74.12,29.51c-3.7-1.77-6.77-3.81-8-8.07a14.46,14.46,0,0,1-.42-1.93c-1.37,0-2.79.16-4.12.32a16.17,16.17,0,0,0,.54,2.84c1.4,4.61,7,9,12,7.3A.25.25,0,0,0,74.12,29.51Z" transform="translate(-13.92 -5.14)"/><path class="cls-1" d="M78.59,16.33a2.81,2.81,0,0,0-2-1.18l-4.91-.25a3.4,3.4,0,0,1-.63-.15,28.31,28.31,0,0,0-6-1.44l0-.22C64.71,10.3,63.61,7.35,61.16,6a7.34,7.34,0,0,0-4.45-.77,10.16,10.16,0,0,0-8,6c-1.24,2.95-1,6.26-1.17,9.45s-1,6.68-3.6,8.52a7.85,7.85,0,0,1-5.06,1.29,36.15,36.15,0,0,0-4.16,5.12,25,25,0,0,0,4,.63,13.63,13.63,0,0,0,8.56-2.07,14,14,0,0,0,5.15-7.87,31,31,0,0,0,.93-5.66,43.46,43.46,0,0,1,8.11-1.78c1.29-.16,2.62-.26,4-.32l.64,0a4.18,4.18,0,0,1,2.59.81l3.19,3.82a2.8,2.8,0,0,0,1.33.75c1.92.47,7.76,1.43,8.44.38S80,18.34,78.59,16.33Z" transform="translate(-13.92 -5.14)"/><path class="cls-1" d="M84.17,74.76a.27.27,0,0,0-.34-.41,45.78,45.78,0,0,1-5.18,3.05v0c.27-2.75.33-3.53,1.77-5.08a3.75,3.75,0,0,0,.93-3.41c-.57-2.5-2.27-7.41-3.7-7.41-2,0-3.83,4.79-4.66,6.18-1.19,2,.45,4.47,1.46,6.24a2.26,2.26,0,0,1,.29.76,28.43,28.43,0,0,1,.16,7.71c-.33,3.73-3.27,8.86-7.58,6a8.35,8.35,0,0,1-2.41-2.67,38.84,38.84,0,0,0,9-3.45c.08-.91.16-1.87.17-2.84a44.6,44.6,0,0,1-11,2.5H63c-1.37.13-2.79.2-4.28.2a39.17,39.17,0,0,1-10.92-1.41c1.59-1.19,3.34-2.52,5.31-2.33a5.4,5.4,0,0,1,3.78,2.59l.08.13a49.28,49.28,0,0,0,5.85-.16c-1.38-3.5-3-7.23-6.61-8.51-6.09-2.17-12.1,3.73-17,6.46-3.23,1.81-7.44,3.57-11.1,1.94a4.93,4.93,0,0,1-3-4.13,5.82,5.82,0,0,1,2.15-4.51A35.57,35.57,0,0,0,35,79.73,24.35,24.35,0,0,0,38.78,78c.45-.26.92-.55,1.4-.85A23.49,23.49,0,0,1,32.41,68h0a30.18,30.18,0,0,1-1.63-4,.24.24,0,0,0,0-.08c-.14-.44-.27-.87-.39-1.32A44.44,44.44,0,0,1,28.9,50.76v-.14c2.85,1.32,5.23,3.21,5,6.18a7.43,7.43,0,0,1-2.7,5,31.9,31.9,0,0,0,2.08,5.74,25.74,25.74,0,0,0,4.42-4.43c2.65-3.52,3.89-8.56,1.62-12.34-1.52-2.53-4.32-4-7.11-5s-5.73-1.64-8.32-3.07a6,6,0,0,1-3.34-3.81,4.65,4.65,0,0,1,2.64-5.2,5.16,5.16,0,0,1,2-.42,38,38,0,0,0-3,6.72,6.67,6.67,0,0,0,2.25,1.84,29.4,29.4,0,0,0,5.48,2.12,30.24,30.24,0,0,1,3.84-8.55h0A35.49,35.49,0,0,1,46.1,23.8a17.42,17.42,0,0,0,.44-3.19c0-.69.06-1.41.08-2.1,0-1.23.07-2.47.21-3.7a42.36,42.36,0,0,0-17.9,12.91,14.55,14.55,0,0,0-3.7-.57,10.67,10.67,0,0,0-7.52,3c-5.3,5.21-3.29,13.88,2.76,17.29-.1,1.08-.16,2.17-.16,3.28A35.93,35.93,0,0,0,23.9,66.58a13.26,13.26,0,0,0-3.48,3.07c-2.59,3.56-2.32,8.74.12,12.41a12,12,0,0,0,5.22,4.38,15.43,15.43,0,0,0,9.08.53,29.06,29.06,0,0,0,7.88-3,37,37,0,0,0,13.82,2.69c1,0,1.92,0,2.85-.12a15.82,15.82,0,0,0,5.15,6.62c4.34,3,10.82,2,13-3.06,1.43-3.31,1-7.12,1-10.73A46,46,0,0,0,84.17,74.76Z" transform="translate(-13.92 -5.14)"/><path class="cls-2" d="M54.27,13a5.45,5.45,0,0,1,.61-1.07,3.29,3.29,0,0,1,2.29-1.36c1.58-.14,2.59,1,3.16,2.3-.88,0-1.82-.06-2.83-.06A27.28,27.28,0,0,0,54.27,13Z" transform="translate(-13.92 -5.14)"/><path class="cls-3" d="M42,38.79" transform="translate(-13.92 -5.14)"/><path class="cls-3" d="M42,39.19a.4.4,0,0,0,0-.8.4.4,0,0,0,0,.8Z" transform="translate(-13.92 -5.14)"/><path class="cls-3" d="M48.25,35.9" transform="translate(-13.92 -5.14)"/><path class="cls-3" d="M48.25,36.1a.2.2,0,0,0,0-.4.2.2,0,0,0,0,.4Z" transform="translate(-13.92 -5.14)"/><path class="cls-3" d="M48.85,38.67" transform="translate(-13.92 -5.14)"/><path class="cls-3" d="M48.85,38.87a.2.2,0,0,0,0-.4.2.2,0,0,0,0,.4Z" transform="translate(-13.92 -5.14)"/><path class="cls-3" d="M46.08,42.77" transform="translate(-13.92 -5.14)"/><path class="cls-3" d="M46.08,43a.2.2,0,0,0,0-.4.2.2,0,0,0,0,.4Z" transform="translate(-13.92 -5.14)"/><path class="cls-3" d="M36.19,38.31" transform="translate(-13.92 -5.14)"/><path class="cls-3" d="M36.19,38.51a.2.2,0,0,0,0-.4.2.2,0,0,0,0,.4Z" transform="translate(-13.92 -5.14)"/><path class="cls-4" d="M48.25,6.71" transform="translate(-13.92 -5.14)"/><path class="cls-4" d="M48.25,6.91a.2.2,0,0,0,0-.4.2.2,0,0,0,0,.4Z" transform="translate(-13.92 -5.14)"/><path class="cls-5" d="M45.5,10.11l.12-.12c.18-.19-.1-.47-.28-.29l-.12.12a.2.2,0,0,0,.28.29Z" transform="translate(-13.92 -5.14)"/><path class="cls-4" d="M43.43,12.74" transform="translate(-13.92 -5.14)"/><path class="cls-4" d="M43.43,12.94a.2.2,0,0,0,0-.4.2.2,0,0,0,0,.4Z" transform="translate(-13.92 -5.14)"/><path class="cls-4" d="M43.19,8.16" transform="translate(-13.92 -5.14)"/><path class="cls-4" d="M43.19,8.56a.4.4,0,0,0,0-.8.4.4,0,0,0,0,.8Z" transform="translate(-13.92 -5.14)"/><path class="cls-5" d="M30.88,21.62H31a.2.2,0,0,0,0-.4h-.12a.2.2,0,0,0,0,.4Z" transform="translate(-13.92 -5.14)"/><path class="cls-4" d="M27.87,24" transform="translate(-13.92 -5.14)"/><path class="cls-4" d="M27.87,24.16a.2.2,0,0,0,0-.4.2.2,0,0,0,0,.4Z" transform="translate(-13.92 -5.14)"/><path class="cls-4" d="M22.92,24.92" transform="translate(-13.92 -5.14)"/><path class="cls-4" d="M22.92,25.12a.2.2,0,0,0,0-.4.2.2,0,0,0,0,.4Z" transform="translate(-13.92 -5.14)"/><path class="cls-4" d="M26.06,21.91" transform="translate(-13.92 -5.14)"/><path class="cls-4" d="M26.06,22.31a.4.4,0,0,0,0-.8.4.4,0,0,0,0,.8Z" transform="translate(-13.92 -5.14)"/><path class="cls-4" d="M27.63,18.29" transform="translate(-13.92 -5.14)"/><path class="cls-4" d="M27.63,18.49a.2.2,0,0,0,0-.4.2.2,0,0,0,0,.4Z" transform="translate(-13.92 -5.14)"/><path class="cls-4" d="M36.67,16.24" transform="translate(-13.92 -5.14)"/><path class="cls-4" d="M36.67,16.44a.2.2,0,0,0,0-.4.2.2,0,0,0,0,.4Z" transform="translate(-13.92 -5.14)"/><path class="cls-4" d="M14.12,44.58" transform="translate(-13.92 -5.14)"/><path class="cls-4" d="M14.12,44.78a.2.2,0,0,0,0-.4.2.2,0,0,0,0,.4Z" transform="translate(-13.92 -5.14)"/><path class="cls-5" d="M17.37,48.64h.13a.2.2,0,0,0,0-.4h-.13a.2.2,0,0,0,0,.4Z" transform="translate(-13.92 -5.14)"/><path class="cls-4" d="M16.41,52.42" transform="translate(-13.92 -5.14)"/><path class="cls-4" d="M16.41,52.62a.2.2,0,0,0,0-.4.2.2,0,0,0,0,.4Z" transform="translate(-13.92 -5.14)"/><path class="cls-4" d="M15.57,50.25" transform="translate(-13.92 -5.14)"/><path class="cls-4" d="M15.57,50.65a.4.4,0,0,0,0-.8.4.4,0,0,0,0,.8Z" transform="translate(-13.92 -5.14)"/><path class="cls-4" d="M18.82,65.57" transform="translate(-13.92 -5.14)"/><path class="cls-4" d="M18.82,66a.4.4,0,0,0,0-.8.4.4,0,0,0,0,.8Z" transform="translate(-13.92 -5.14)"/><path class="cls-4" d="M19.3,62" transform="translate(-13.92 -5.14)"/><path class="cls-4" d="M19.3,62.15a.2.2,0,0,0,0-.4.2.2,0,0,0,0,.4Z" transform="translate(-13.92 -5.14)"/><path class="cls-5" d="M18.14,69.07v.12a.2.2,0,0,0,.4,0v-.12a.2.2,0,0,0-.4,0Z" transform="translate(-13.92 -5.14)"/><path class="cls-6" d="M42.86,88.16,43,88c.37-.36-.2-.92-.56-.56l-.12.12a.4.4,0,0,0,.56.56Z" transform="translate(-13.92 -5.14)"/><path class="cls-7" d="M47.29,90.29" transform="translate(-13.92 -5.14)"/><path class="cls-7" d="M47.29,90.59a.3.3,0,0,0,0-.6.3.3,0,0,0,0,.6Z" transform="translate(-13.92 -5.14)"/><path class="cls-6" d="M38.32,88.36v-.12a.2.2,0,0,0-.4,0v.12a.2.2,0,0,0,.4,0Z" transform="translate(-13.92 -5.14)"/><path class="cls-7" d="M43.43,91.62" transform="translate(-13.92 -5.14)"/><path class="cls-7" d="M43.43,91.77a.15.15,0,0,0,0-.3.15.15,0,1,0,0,.3Z" transform="translate(-13.92 -5.14)"/><path class="cls-7" d="M48.61,88" transform="translate(-13.92 -5.14)"/><path class="cls-7" d="M48.61,88.15a.15.15,0,1,0,0-.3.15.15,0,0,0,0,.3Z" transform="translate(-13.92 -5.14)"/><path class="cls-7" d="M82.75,85.11" transform="translate(-13.92 -5.14)"/><path class="cls-7" d="M82.75,85.41a.3.3,0,0,0,0-.6.3.3,0,0,0,0,.6Z" transform="translate(-13.92 -5.14)"/><path class="cls-6" d="M85.4,81.93h.12a.2.2,0,0,0,0-.4H85.4a.2.2,0,0,0,0,.4Z" transform="translate(-13.92 -5.14)"/><path class="cls-7" d="M85.88,87.28" transform="translate(-13.92 -5.14)"/><path class="cls-7" d="M85.88,87.43a.15.15,0,0,0,0-.3.15.15,0,0,0,0,.3Z" transform="translate(-13.92 -5.14)"/><path class="cls-7" d="M80.33,91" transform="translate(-13.92 -5.14)"/><path class="cls-7" d="M80.33,91.17a.15.15,0,1,0,0-.3.15.15,0,0,0,0,.3Z" transform="translate(-13.92 -5.14)"/><path class="cls-8" d="M68.51,76.06" transform="translate(-13.92 -5.14)"/><path class="cls-8" d="M68.51,76.46a.4.4,0,0,0,0-.8.4.4,0,0,0,0,.8Z" transform="translate(-13.92 -5.14)"/><path class="cls-8" d="M68.15,78.71" transform="translate(-13.92 -5.14)"/><path class="cls-8" d="M68.15,78.91a.2.2,0,0,0,0-.4.2.2,0,0,0,0,.4Z" transform="translate(-13.92 -5.14)"/><path class="cls-8" d="M71.29,76.42" transform="translate(-13.92 -5.14)"/><path class="cls-8" d="M71.29,76.62a.2.2,0,0,0,0-.4.2.2,0,0,0,0,.4Z" transform="translate(-13.92 -5.14)"/><path class="cls-8" d="M70.08,71.72" transform="translate(-13.92 -5.14)"/><path class="cls-8" d="M70.08,71.92a.2.2,0,0,0,0-.4.2.2,0,0,0,0,.4Z" transform="translate(-13.92 -5.14)"/><path class="cls-8" d="M84.68,69.43" transform="translate(-13.92 -5.14)"/><path class="cls-8" d="M84.68,69.63a.2.2,0,0,0,0-.4.2.2,0,0,0,0,.4Z" transform="translate(-13.92 -5.14)"/><path class="cls-8" d="M45.36,72.44" transform="translate(-13.92 -5.14)"/><path class="cls-8" d="M45.36,72.64a.2.2,0,0,0,0-.4.2.2,0,0,0,0,.4Z" transform="translate(-13.92 -5.14)"/><path class="cls-8" d="M40.41,72.56" transform="translate(-13.92 -5.14)"/><path class="cls-8" d="M40.41,72.76a.2.2,0,0,0,0-.4.2.2,0,0,0,0,.4Z" transform="translate(-13.92 -5.14)"/><path class="cls-9" d="M66.7,11.13h.13a.2.2,0,0,0,0-.4H66.7a.2.2,0,0,0,0,.4Z" transform="translate(-13.92 -5.14)"/><path class="cls-10" d="M65.38,7" transform="translate(-13.92 -5.14)"/><path class="cls-10" d="M65.38,7.15a.2.2,0,0,0,0-.4.2.2,0,0,0,0,.4Z" transform="translate(-13.92 -5.14)"/><path class="cls-10" d="M70.2,11.9" transform="translate(-13.92 -5.14)"/><path class="cls-10" d="M70.2,12.1a.2.2,0,0,0,0-.4.2.2,0,0,0,0,.4Z" transform="translate(-13.92 -5.14)"/><path class="cls-10" d="M70.08,9.36" transform="translate(-13.92 -5.14)"/><path class="cls-10" d="M70.08,9.76a.4.4,0,0,0,0-.8.4.4,0,0,0,0,.8Z" transform="translate(-13.92 -5.14)"/><path class="cls-10" d="M65.86,31.19" transform="translate(-13.92 -5.14)"/><path class="cls-10" d="M65.86,31.39a.2.2,0,0,0,0-.4.2.2,0,0,0,0,.4Z" transform="translate(-13.92 -5.14)"/><path class="cls-10" d="M71.53,34.81" transform="translate(-13.92 -5.14)"/><path class="cls-10" d="M71.53,35a.2.2,0,0,0,0-.4.2.2,0,0,0,0,.4Z" transform="translate(-13.92 -5.14)"/><path class="cls-10" d="M82.63,16.84" transform="translate(-13.92 -5.14)"/><path class="cls-10" d="M82.63,17a.2.2,0,0,0,0-.4.2.2,0,0,0,0,.4Z" transform="translate(-13.92 -5.14)"/><path class="cls-2" d="M56.21,15.81l-.44.17a1.48,1.48,0,0,1-.42.14c-.09,0-.12-.12,0-.17a1.5,1.5,0,0,1,.43-.1l.45-.1C56.24,15.74,56.25,15.8,56.21,15.81Z" transform="translate(-13.92 -5.14)"/><path class="cls-2" d="M57.62,16.56a.07.07,0,0,1,0-.14,4.91,4.91,0,0,1,1.47-.23h0C58.57,16.29,58.1,16.46,57.62,16.56Z" transform="translate(-13.92 -5.14)"/><path class="cls-2" d="M58.68,14.48a.11.11,0,0,1,0-.22,10.66,10.66,0,0,1,1.69.19s0,.05,0,.05A10.58,10.58,0,0,1,58.68,14.48Z" transform="translate(-13.92 -5.14)"/><path class="cls-2" d="M61.41,17.71c-.29.06-.58.08-.87.13a6.46,6.46,0,0,1-.75.11s0,0,0,0a3.66,3.66,0,0,1,1.6-.38A.08.08,0,0,1,61.41,17.71Z" transform="translate(-13.92 -5.14)"/><path class="cls-2" d="M62.58,15.11c-.11,0-.07-.17,0-.18a2.7,2.7,0,0,1,1.1.11s0,0,0,0A2.64,2.64,0,0,1,62.58,15.11Z" transform="translate(-13.92 -5.14)"/><path class="cls-2" d="M64.77,17a6.52,6.52,0,0,1-1.17,0s0,0,0,0a2.34,2.34,0,0,1,1.17-.2A.12.12,0,0,1,64.77,17Z" transform="translate(-13.92 -5.14)"/><path class="cls-2" d="M70.93,82a3.79,3.79,0,0,1,.78-.39,1.84,1.84,0,0,1,.77-.28.12.12,0,0,1,.08.2,1.62,1.62,0,0,1-.74.34,2.57,2.57,0,0,1-.86.2S70.9,82.05,70.93,82Z" transform="translate(-13.92 -5.14)"/><path class="cls-2" d="M68.8,83.41a1.83,1.83,0,0,1,.46-.18,2,2,0,0,1,.48-.13.13.13,0,0,1,.07.23,1.61,1.61,0,0,1-.53.15,1.49,1.49,0,0,1-.47,0S68.77,83.43,68.8,83.41Z" transform="translate(-13.92 -5.14)"/><path class="cls-2" d="M65.68,83.06l1-.27c.23-.06.59-.24.83-.16a.09.09,0,0,1,0,.15c-.19.17-.58.16-.82.21l-1,.17C65.64,83.17,65.61,83.08,65.68,83.06Z" transform="translate(-13.92 -5.14)"/><path class="cls-2" d="M36.25,76.45a1.71,1.71,0,0,1,.69.5c.15.19-.1.45-.27.27a3.24,3.24,0,0,1-.51-.66S36.18,76.42,36.25,76.45Z" transform="translate(-13.92 -5.14)"/><path class="cls-2" d="M33.37,71.9a7,7,0,0,1,.68.65,3.93,3.93,0,0,1,.63.73c.07.13-.08.32-.22.22a3.81,3.81,0,0,1-.57-.69,7,7,0,0,1-.58-.84S33.33,71.87,33.37,71.9Z" transform="translate(-13.92 -5.14)"/><path class="cls-2" d="M32.25,74.86c.27.22.51.48.76.72a4.17,4.17,0,0,1,.71.68c.1.14-.09.3-.22.22a3.2,3.2,0,0,1-.73-.74,4.29,4.29,0,0,1-.57-.84A0,0,0,0,1,32.25,74.86Z" transform="translate(-13.92 -5.14)"/><path class="cls-2" d="M29.55,69.84a10.27,10.27,0,0,1,.7.78c.24.26.49.51.72.77a.15.15,0,0,1-.21.2,6.17,6.17,0,0,1-1.25-1.71S29.53,69.82,29.55,69.84Z" transform="translate(-13.92 -5.14)"/><path class="cls-2" d="M28.15,65.75a2.59,2.59,0,0,1,.48.56c.2.26.41.52.62.77s-.11.42-.25.25a7.71,7.71,0,0,1-.52-.75,2.45,2.45,0,0,1-.38-.8S28.12,65.73,28.15,65.75Z" transform="translate(-13.92 -5.14)"/><path class="cls-2" d="M27.31,51.12a6.93,6.93,0,0,1,.19,1.21.09.09,0,0,1-.18,0,8.27,8.27,0,0,1-.12-1.22C27.19,51.07,27.3,51.06,27.31,51.12Z" transform="translate(-13.92 -5.14)"/><path class="cls-2" d="M26.52,56.9a15.59,15.59,0,0,1,.89,2.26.14.14,0,0,1-.26.11A7.81,7.81,0,0,1,26.39,57C26.37,56.88,26.49,56.81,26.52,56.9Z" transform="translate(-13.92 -5.14)"/><path class="cls-2" d="M26.32,61.39a2.38,2.38,0,0,1,.35.67,7.55,7.55,0,0,1,.32.72c.06.15-.17.23-.24.11a4,4,0,0,1-.3-.74,1.73,1.73,0,0,1-.16-.74S26.31,61.38,26.32,61.39Z" transform="translate(-13.92 -5.14)"/><path class="cls-2" d="M26.07,67c.24.27.42.6.63.89a5,5,0,0,1,.71.95.17.17,0,0,1-.27.21,4,4,0,0,1-.74-1,2.11,2.11,0,0,1-.44-1A.06.06,0,0,1,26.07,67Z" transform="translate(-13.92 -5.14)"/><path class="cls-2" d="M38.49,28.37a2.84,2.84,0,0,1-.55.49l-.33.26c-.08.06-.22.14-.25.24s0,0,0,0c-.14-.16.15-.35.25-.45a3.83,3.83,0,0,1,.74-.71C38.42,28.16,38.55,28.27,38.49,28.37Z" transform="translate(-13.92 -5.14)"/><path class="cls-2" d="M44,20.29a4.25,4.25,0,0,1,1-.51s.05,0,0,0c-.33.2-.65.41-1,.62C44,20.51,43.91,20.35,44,20.29Z" transform="translate(-13.92 -5.14)"/><path class="cls-2" d="M43.36,24.42a4.34,4.34,0,0,1-.54.42,3.92,3.92,0,0,1-.62.45.08.08,0,0,1-.1-.13,2.9,2.9,0,0,1,.6-.44,4.32,4.32,0,0,1,.64-.34S43.37,24.4,43.36,24.42Z" transform="translate(-13.92 -5.14)"/><path class="cls-2" d="M41.86,19.86a4.69,4.69,0,0,1,1.45-.68s.06,0,0,.05c-.41.33-.91.57-1.34.87C41.85,20.2,41.7,20,41.86,19.86Z" transform="translate(-13.92 -5.14)"/><path class="cls-2" d="M40.75,22.62a9.61,9.61,0,0,1,.87-.53s.1,0,.06.08c-.27.21-.53.44-.82.63C40.74,22.87,40.65,22.7,40.75,22.62Z" transform="translate(-13.92 -5.14)"/><path class="cls-2" d="M39.27,23.57a3.64,3.64,0,0,1-.88.73c-.51.34-1,.72-1.45,1.1-.11.08-.27-.06-.16-.16a11.29,11.29,0,0,1,2.43-1.73S39.29,23.53,39.27,23.57Z" transform="translate(-13.92 -5.14)"/><path class="cls-2" d="M35.9,22.86A9.66,9.66,0,0,1,38,21.41s.08,0,0,.06L36.14,23.1C36,23.23,35.74,23,35.9,22.86Z" transform="translate(-13.92 -5.14)"/><path class="cls-2" d="M33.31,29.36a5.19,5.19,0,0,1,1.08-1.16.12.12,0,0,1,.17.16,4.79,4.79,0,0,1-.75.87c-.15.17-.3.33-.46.49a1.64,1.64,0,0,0-.41.5s-.07,0-.07,0C32.81,29.89,33.12,29.61,33.31,29.36Z" transform="translate(-13.92 -5.14)"/><path class="cls-2" d="M31.67,34.77a2.44,2.44,0,0,1,.93-1.43s.08,0,.06.07c-.11.23-.27.44-.39.68a4.14,4.14,0,0,0-.27.77A.17.17,0,0,1,31.67,34.77Z" transform="translate(-13.92 -5.14)"/><path class="cls-2" d="M30.49,28.51a0,0,0,0,1,.07.06,7.25,7.25,0,0,0-1.33,2c0,.12-.23.07-.19,0A4.36,4.36,0,0,1,30.49,28.51Z" transform="translate(-13.92 -5.14)"/><path class="cls-2" d="M28.8,35.28a4.11,4.11,0,0,1,.88-1.71s0,0,0,0c-.11.62-.53,1.14-.66,1.76C29,35.51,28.77,35.44,28.8,35.28Z" transform="translate(-13.92 -5.14)"/><path class="cls-2" d="M28.16,39.8a1.75,1.75,0,0,1,.44-.8s.09,0,.07,0a9,9,0,0,0-.28.88,4.66,4.66,0,0,1-.19.84.12.12,0,0,1-.22,0A2,2,0,0,1,28.16,39.8Z" transform="translate(-13.92 -5.14)"/><path class="cls-2" d="M26.35,38.05a9.28,9.28,0,0,1,.88-2.14s0,0,0,0a9,9,0,0,1-.65,2.21C26.56,38.3,26.29,38.22,26.35,38.05Z" transform="translate(-13.92 -5.14)"/><path class="cls-2" d="M22.69,51.09a.11.11,0,0,1-.18,0c-.15-.12-.16-.36-.19-.54a6,6,0,0,1-.11-.72c0-.18-.13-.63,0-.78h.05a0,0,0,0,1,0,.06,5,5,0,0,1,.2.84c0,.21.08.42.13.62A.9.9,0,0,1,22.69,51.09Z" transform="translate(-13.92 -5.14)"/><path class="cls-2" d="M24,60.88a5.93,5.93,0,0,1-.66-2.81s0,0,.05,0c.35.86.53,1.77.91,2.64C24.38,60.91,24.1,61.09,24,60.88Z" transform="translate(-13.92 -5.14)"/><path class="cls-2" d="M24.82,54.12a3,3,0,0,1-.34-1.79s0,0,.05,0a5.57,5.57,0,0,1,.25.79c.09.3.22.6.29.91C25.1,54.17,24.89,54.27,24.82,54.12Z" transform="translate(-13.92 -5.14)"/><path class="cls-2" d="M49.11,83.71a4.46,4.46,0,0,1-1.62-.42s0,0,0,0c.53,0,1.07.1,1.61.14C49.3,83.41,49.3,83.72,49.11,83.71Z" transform="translate(-13.92 -5.14)"/><path class="cls-2" d="M51.63,85.43a1.48,1.48,0,0,1-.66-.07,1.8,1.8,0,0,1-.65-.23s0,0,0,0a2.21,2.21,0,0,1,.68,0,1.58,1.58,0,0,1,.65.09A.16.16,0,0,1,51.63,85.43Z" transform="translate(-13.92 -5.14)"/><path class="cls-2" d="M53.19,83.12a4.94,4.94,0,0,1-2-.33s0-.08,0-.07a16.71,16.71,0,0,1,2,.07A.17.17,0,0,1,53.19,83.12Z" transform="translate(-13.92 -5.14)"/><path class="cls-2" d="M56.75,85a2.62,2.62,0,0,1-.88-.06,7.86,7.86,0,0,1-.84-.19s0-.07,0-.07c.29,0,.58,0,.88,0a3.85,3.85,0,0,1,.83,0A.15.15,0,0,1,56.75,85Z" transform="translate(-13.92 -5.14)"/><path class="cls-2" d="M59.5,85.62a1.86,1.86,0,0,1-.88,0,3.88,3.88,0,0,1-.9-.1,0,0,0,0,1,0-.08l.89-.08a3.43,3.43,0,0,1,.84-.06A.15.15,0,0,1,59.5,85.62Z" transform="translate(-13.92 -5.14)"/><path class="cls-2" d="M59.61,83.66a1.82,1.82,0,0,1-1,0,.08.08,0,0,1,0-.15,3.11,3.11,0,0,1,.44-.06,4.23,4.23,0,0,1,.5,0A.15.15,0,0,1,59.61,83.66Z" transform="translate(-13.92 -5.14)"/><path class="cls-2" d="M64,84.6a5.07,5.07,0,0,1-1.6.07s-.07-.07,0-.09a4.91,4.91,0,0,1,1.57-.25C64.08,84.34,64.12,84.57,64,84.6Z" transform="translate(-13.92 -5.14)"/></svg>