<svg id="Layer_1" data-name="Layer 1" xmlns="http://www.w3.org/2000/svg" viewBox="0 0 1.7 1.77"><title>cannashop</title><path d="M2.15,2.59h-.1l.07.07h0l.08.07h0l-.06.06h.18v.05h0V2.78h.18l-.06-.06h0a.6.6,0,0,0,.08-.08h0l.07-.07H2.48s0-.05,0-.07h0l0-.1-.08.06h0l0,0a.84.84,0,0,0,0-.12h0l0-.09,0,.09h0l0,.1,0,0h0l-.08-.06,0,.1h0s0,.05,0,.07Zm.05-.07h0l.09.08a.49.49,0,0,1,0-.17h0a.54.54,0,0,1,0,.18l.09-.09h0a.33.33,0,0,1,0,.13l.09,0h0a.27.27,0,0,1-.11.09l0,0h0a.13.13,0,0,1-.09,0,.13.13,0,0,1-.09,0h0l0,0a.27.27,0,0,1-.11-.09h0l.09,0A.33.33,0,0,1,2.2,2.52Z" transform="translate(-1.75 -1.3)"/><polygon points="1.5 1.73 0.21 1.73 0.21 0.9 0.17 0.9 0.17 1.77 1.54 1.77 1.54 0.9 1.5 0.9 1.5 1.73"/><path d="M3.2,1.58h0V1.3H2.05v.28H2l-.25.48h0a.16.16,0,0,0,.16.11H2a.32.32,0,0,0,.17.06h0a.23.23,0,0,0,.11-.06.23.23,0,0,0,.16.06.19.19,0,0,0,.15-.06.2.2,0,0,0,.14.05.3.3,0,0,0,.16-.05.29.29,0,0,0,.16.06.24.24,0,0,0,.16-.06.24.24,0,0,0,.15,0,.25.25,0,0,0,.07-.09h0ZM2.09,1.34h1v.24h-1Zm-.29.72L2,1.62h.16L2,2.13A.14.14,0,0,1,1.8,2.06Zm.38.13a.22.22,0,0,1-.16,0l.21-.52h.19l-.14.52A.17.17,0,0,1,2.18,2.19Zm.14,0,.14-.52h.13v.52A.2.2,0,0,1,2.32,2.14Zm.31,0V1.62h.12l.13.52A.22.22,0,0,1,2.63,2.14Zm.3,0-.14-.51H3l.21.52A.2.2,0,0,1,2.93,2.13Zm.43,0a.16.16,0,0,1-.12,0L3,1.62h.15l.22.44A.07.07,0,0,1,3.36,2.12Z" transform="translate(-1.75 -1.3)"/><polygon points="1.25 1.68 1.25 1.09 0.92 1.09 0.92 1.68 0.97 1.68 0.97 1.13 1.2 1.13 1.2 1.68 1.25 1.68"/></svg>